{
  "accessors": [
    {
      "bufferView": 2,
      "componentType": 5126,
      "count": 13980,
      "max": [
        0.10947215557098389,
        0.30003833770751953,
        0.3002654016017914
      ],
      "min": [
        -0.1094721183180809,
        -0.3001258671283722,
        -0.3002654016017914
      ],
      "type": "VEC3"
    },
    {
      "bufferView": 2,
      "byteOffset": 167760,
      "componentType": 5126,
      "count": 13980,
      "max": [
        1.0,
        0.999997615814209,
        0.999997615814209
      ],
      "min": [
        -1.0,
        -0.999997615814209,
        -0.999997615814209
      ],
      "type": "VEC3"
    },
    {
      "bufferView": 3,
      "componentType": 5126,
      "count": 13980,
      "max": [
        1.0,
        1.0,
        1.0,
        1.0
      ],
      "min": [
        -1.0,
        -1.0,
        -1.0,
        -1.0
      ],
      "type": "VEC4"
    },
    {
      "bufferView": 1,
      "componentType": 5126,
      "count": 13980,
      "max": [
        0.9938106536865234,
        0.99847412109375
      ],
      "min": [
        -0.0013729110360145569,
        0.015067726373672485
      ],
      "type": "VEC2"
    },
    {
      "bufferView": 0,
      "componentType": 5125,
      "count": 36180,
      "type": "SCALAR"
    },
    {
      "bufferView": 2,
      "byteOffset": 335520,
      "componentType": 5126,
      "count": 4356,
      "max": [
        0.09054414927959442,
        0.30003833770751953,
        0.3002654016017914
      ],
      "min": [
        -0.09054414927959442,
        -0.3001258671283722,
        -0.3002654016017914
      ],
      "type": "VEC3"
    },
    {
      "bufferView": 2,
      "byteOffset": 387792,
      "componentType": 5126,
      "count": 4356,
      "max": [
        0.050686758011579514,
        1.0,
        1.0
      ],
      "min": [
        -0.050686031579971313,
        -1.0,
        -1.0
      ],
      "type": "VEC3"
    },
    {
      "bufferView": 1,
      "byteOffset": 111840,
      "componentType": 5126,
      "count": 4356,
      "max": [
        0.561165988445282,
        0.8769779801368713
      ],
      "min": [
        0.04819166660308838,
        0.2816154658794403
      ],
      "type": "VEC2"
    },
    {
      "bufferView": 0,
      "byteOffset": 144720,
      "componentType": 5125,
      "count": 11610,
      "type": "SCALAR"
    }
  ],
  "asset": {
    "extras": {
      "author": "Unity Fan youtube channel (https://sketchfab.com/unityfan777)",
      "license": "SKETCHFAB Standard (https://sketchfab.com/licenses)",
      "source": "https://sketchfab.com/3d-models/free-tire-001-r17-2f52f51262f44a9bbb631ef0562d410c",
      "title": "FREE - Tire 001 R17"
    },
    "generator": "Sketchfab-15.50.0",
    "version": "2.0"
  },
  "bufferViews": [
    {
      "buffer": 0,
      "byteLength": 191160,
      "name": "floatBufferViews",
      "target": 34963
    },
    {
      "buffer": 0,
      "byteLength": 146688,
      "byteOffset": 191160,
      "byteStride": 8,
      "name": "floatBufferViews",
      "target": 34962
    },
    {
      "buffer": 0,
      "byteLength": 440064,
      "byteOffset": 337848,
      "byteStride": 12,
      "name": "floatBufferViews",
      "target": 34962
    },
    {
      "buffer": 0,
      "byteLength": 223680,
      "byteOffset": 777912,
      "byteStride": 16,
      "name": "floatBufferViews",
      "target": 34962
    }
  ],
  "buffers": [
    {
      "byteLength": 1001592,
      "uri": "scene.bin"
    }
  ],
  "images": [
    {
      "uri": "textures/rubber_tires_normal.png"
    }
  ],
  "materials": [
    {
      "doubleSided": true,
      "name": "rubber_tires",
      "normalTexture": {
        "index": 0
      },
      "pbrMetallicRoughness": {
        "baseColorFactor": [
          0.0,
          0.0,
          0.0,
          1.0
        ],
        "metallicFactor": 0.0,
        "roughnessFactor": 0.4
      }
    },
    {
      "doubleSided": true,
      "name": "tire_protector",
      "pbrMetallicRoughness": {
        "baseColorFactor": [
          0.00257932,
          0.00257932,
          0.00257932,
          1.0
        ],
        "metallicFactor": 0.0,
        "roughnessFactor": 0.7
      }
    }
  ],
  "meshes": [
    {
      "name": "tire_001_R17_rubber_tires_0",
      "primitives": [
        {
          "attributes": {
            "NORMAL": 1,
            "POSITION": 0,
            "TANGENT": 2,
            "TEXCOORD_0": 3
          },
          "indices": 4,
          "material": 0,
          "mode": 4
        }
      ]
    },
    {
      "name": "tire_001_R17_tire_protector_0",
      "primitives": [
        {
          "attributes": {
            "NORMAL": 6,
            "POSITION": 5,
            "TEXCOORD_0": 7
          },
          "indices": 8,
          "material": 1,
          "mode": 4
        }
      ]
    }
  ],
  "nodes": [
    {
      "children": [
        1
      ],
      "matrix": [
        1.0,
        0.0,
        0.0,
        0.0,
        0.0,
        2.220446049250313e-16,
        -1.0,
        0.0,
        0.0,
        1.0,
        2.220446049250313e-16,
        0.0,
        0.0,
        0.0,
        0.0,
        1.0
      ],
      "name": "Sketchfab_model"
    },
    {
      "children": [
        2
      ],
      "matrix": [
        0.009999999776482582,
        0.0,
        0.0,
        0.0,
        0.0,
        0.0,
        0.009999999776482582,
        0.0,
        0.0,
        -0.009999999776482582,
        0.0,
        0.0,
        0.0,
        0.0,
        0.0,
        1.0
      ],
      "name": "bbc1b83c1bda45a4871e023256a403bc.fbx"
    },
    {
      "children": [
        3
      ],
      "name": "RootNode"
    },
    {
      "children": [
        4,
        5
      ],
      "matrix": [
        100.0,
        0.0,
        0.0,
        0.0,
        0.0,
        -1.629206793918314e-05,
        -99.99999999999868,
        0.0,
        0.0,
        99.99999999999868,
        -1.629206793918314e-05,
        0.0,
        0.0,
        0.0,
        0.0,
        1.0
      ],
      "name": "tire_001_R17"
    },
    {
      "mesh": 0,
      "name": "tire_001_R17_rubber_tires_0"
    },
    {
      "mesh": 1,
      "name": "tire_001_R17_tire_protector_0"
    }
  ],
  "samplers": [
    {
      "magFilter": 9729,
      "minFilter": 9987,
      "wrapS": 10497,
      "wrapT": 10497
    }
  ],
  "scene": 0,
  "scenes": [
    {
      "name": "Sketchfab_Scene",
      "nodes": [
        0
      ]
    }
  ],
  "textures": [
    {
      "sampler": 0,
      "source": 0
    }
  ]
}
